<?xml version="1.0" encoding="UTF-8" standalone="no"?>
<!-- Created with Inkscape (http://www.inkscape.org/) -->

<svg
   width="220"
   height="220"
   viewBox="0 0 58.208332 58.208333"
   version="1.1"
   id="svg5"
   xml:space="preserve"
   inkscape:version="1.2 (dc2aeda, 2022-05-15)"
   sodipodi:docname="logo.svg"
   xmlns:inkscape="http://www.inkscape.org/namespaces/inkscape"
   xmlns:sodipodi="http://sodipodi.sourceforge.net/DTD/sodipodi-0.dtd"
   xmlns="http://www.w3.org/2000/svg"
   xmlns:svg="http://www.w3.org/2000/svg"><sodipodi:namedview
     id="namedview7"
     pagecolor="#ffffff"
     bordercolor="#666666"
     borderopacity="1.0"
     inkscape:showpageshadow="2"
     inkscape:pageopacity="0.0"
     inkscape:pagecheckerboard="0"
     inkscape:deskcolor="#d1d1d1"
     inkscape:document-units="mm"
     showgrid="false"
     inkscape:zoom="1.1893044"
     inkscape:cx="-84.082763"
     inkscape:cy="3.7837243"
     inkscape:window-width="1636"
     inkscape:window-height="911"
     inkscape:window-x="0"
     inkscape:window-y="25"
     inkscape:window-maximized="0"
     inkscape:current-layer="layer1" /><defs
     id="defs2" /><g
     inkscape:label="Layer 1"
     inkscape:groupmode="layer"
     id="layer1"><rect
       style="opacity:1;fill:#70aec4;fill-opacity:1;stroke:none;stroke-width:1.764;stroke-linecap:round;stroke-linejoin:round;stroke-dasharray:none;stroke-opacity:1"
       id="rect4688"
       width="58.208332"
       height="58.208332"
       x="0"
       y="0" /><g
       id="g5388"
       transform="matrix(1.2491356,0,0,1.2491356,4.5646529,7.4733504)"><rect
         style="opacity:1;fill:#000000;fill-opacity:1;stroke:none;stroke-width:2.68037;stroke-linecap:round;stroke-linejoin:round;stroke-dasharray:none;stroke-opacity:1"
         id="rect4686"
         width="30.104862"
         height="4.7830825"
         x="4.5927639"
         y="29.850172" /><rect
         style="opacity:1;fill:#000000;fill-opacity:1;stroke:none;stroke-width:6.48311;stroke-linecap:round;stroke-linejoin:round;stroke-dasharray:none;stroke-opacity:1"
         id="rect4292"
         width="39.29039"
         height="21.944651"
         x="0"
         y="5.1125526" /><rect
         style="fill:#ffffff;fill-opacity:1;stroke:none;stroke-width:1.764;stroke-linecap:round;stroke-linejoin:round;stroke-dasharray:none;stroke-opacity:1"
         id="rect4122"
         width="8.4666662"
         height="10.672393"
         x="1.3229166"
         y="1.4944385"
         rx="1.3229166"
         ry="1.3229166" /><g
         id="g4072"><path
           id="rect3427"
           style="fill:#d1e5ec;fill-opacity:1;stroke:none;stroke-width:2.02912;stroke-linecap:round;stroke-linejoin:round;stroke-dasharray:none;stroke-opacity:1"
           d="M 1.3229167,5.7785929 V 12.166832 H 9.7895833 V 5.7785929 c 0,1.8489235 -0.9167093,3.3372638 -2.0551717,3.3372638 H 3.3780884 c -1.1384624,0 -2.0551717,-1.4883403 -2.0551717,-3.3372638 z"
           sodipodi:nodetypes="ccccssc" /><path
           id="rect4053"
           style="fill:none;stroke:#000000;stroke-width:1.764;stroke-linecap:round;stroke-linejoin:round"
           d="m 3.527834,0.88200003 c -1.465789,0 -2.64583397,1.18004397 -2.64583397,2.64583397 v 1.668115 5.298901 c 0,0.732896 0.59002297,1.322917 1.32291697,1.322917 h 6.702432 c 0.732896,0 1.322917,-0.590021 1.322917,-1.322917 V 5.195949 3.527834 c 0,-1.46579 -1.180045,-2.64583397 -2.645833,-2.64583397 z" /></g><rect
         style="fill:#ffffff;fill-opacity:1;stroke:none;stroke-width:1.764;stroke-linecap:round;stroke-linejoin:round;stroke-dasharray:none;stroke-opacity:1"
         id="rect4130"
         width="8.4666662"
         height="10.672393"
         x="10.715625"
         y="1.4944385"
         rx="1.3229166"
         ry="1.3229166" /><g
         id="g4136"
         transform="translate(9.3927083)"><path
           id="path4132"
           style="fill:#d1e5ec;fill-opacity:1;stroke:none;stroke-width:2.02912;stroke-linecap:round;stroke-linejoin:round;stroke-dasharray:none;stroke-opacity:1"
           d="M 1.3229167,5.7785929 V 12.166832 H 9.7895833 V 5.7785929 c 0,1.8489235 -0.9167093,3.3372638 -2.0551717,3.3372638 H 3.3780884 c -1.1384624,0 -2.0551717,-1.4883403 -2.0551717,-3.3372638 z"
           sodipodi:nodetypes="ccccssc" /><path
           id="path4134"
           style="fill:none;stroke:#000000;stroke-width:1.764;stroke-linecap:round;stroke-linejoin:round"
           d="m 3.527834,0.88200003 c -1.465789,0 -2.64583397,1.18004397 -2.64583397,2.64583397 v 1.668115 5.298901 c 0,0.732896 0.59002297,1.322917 1.32291697,1.322917 h 6.702432 c 0.732896,0 1.322917,-0.590021 1.322917,-1.322917 V 5.195949 3.527834 c 0,-1.46579 -1.180045,-2.64583397 -2.645833,-2.64583397 z" /></g><rect
         style="fill:#ffffff;fill-opacity:1;stroke:none;stroke-width:1.764;stroke-linecap:round;stroke-linejoin:round;stroke-dasharray:none;stroke-opacity:1"
         id="rect4140"
         width="8.4666662"
         height="10.672393"
         x="20.108334"
         y="1.4944385"
         rx="1.3229166"
         ry="1.3229166" /><g
         id="g4146"
         transform="translate(18.785417)"><path
           id="path4142"
           style="fill:#d1e5ec;fill-opacity:1;stroke:none;stroke-width:2.02912;stroke-linecap:round;stroke-linejoin:round;stroke-dasharray:none;stroke-opacity:1"
           d="M 1.3229167,5.7785929 V 12.166832 H 9.7895833 V 5.7785929 c 0,1.8489235 -0.9167093,3.3372638 -2.0551717,3.3372638 H 3.3780884 c -1.1384624,0 -2.0551717,-1.4883403 -2.0551717,-3.3372638 z"
           sodipodi:nodetypes="ccccssc" /><path
           id="path4144"
           style="fill:none;stroke:#000000;stroke-width:1.764;stroke-linecap:round;stroke-linejoin:round"
           d="m 3.527834,0.88200003 c -1.465789,0 -2.64583397,1.18004397 -2.64583397,2.64583397 v 1.668115 5.298901 c 0,0.732896 0.59002297,1.322917 1.32291697,1.322917 h 6.702432 c 0.732896,0 1.322917,-0.590021 1.322917,-1.322917 V 5.195949 3.527834 c 0,-1.46579 -1.180045,-2.64583397 -2.645833,-2.64583397 z" /></g><rect
         style="fill:#ffffff;fill-opacity:1;stroke:none;stroke-width:1.764;stroke-linecap:round;stroke-linejoin:round;stroke-dasharray:none;stroke-opacity:1"
         id="rect4150"
         width="8.4666662"
         height="10.672393"
         x="29.501041"
         y="1.4944385"
         rx="1.3229166"
         ry="1.3229166" /><g
         id="g4156"
         transform="translate(28.178125)"><path
           id="path4152"
           style="fill:#d1e5ec;fill-opacity:1;stroke:none;stroke-width:2.02912;stroke-linecap:round;stroke-linejoin:round;stroke-dasharray:none;stroke-opacity:1"
           d="M 1.3229167,5.7785929 V 12.166832 H 9.7895833 V 5.7785929 c 0,1.8489235 -0.9167093,3.3372638 -2.0551717,3.3372638 H 3.3780884 c -1.1384624,0 -2.0551717,-1.4883403 -2.0551717,-3.3372638 z"
           sodipodi:nodetypes="ccccssc" /><path
           id="path4154"
           style="fill:none;stroke:#000000;stroke-width:1.764;stroke-linecap:round;stroke-linejoin:round"
           d="m 3.527834,0.88200003 c -1.465789,0 -2.64583397,1.18004397 -2.64583397,2.64583397 v 1.668115 5.298901 c 0,0.732896 0.59002297,1.322917 1.32291697,1.322917 h 6.702432 c 0.732896,0 1.322917,-0.590021 1.322917,-1.322917 V 5.195949 3.527834 c 0,-1.46579 -1.180045,-2.64583397 -2.645833,-2.64583397 z" /></g><rect
         style="fill:#ffffff;fill-opacity:1;stroke:none;stroke-width:1.764;stroke-linecap:round;stroke-linejoin:round;stroke-dasharray:none;stroke-opacity:1"
         id="rect4160"
         width="8.4666662"
         height="10.672393"
         x="1.3229166"
         y="12.449629"
         rx="1.3229166"
         ry="1.3229166" /><g
         id="g4166"
         transform="translate(0,10.95519)"><path
           id="path4162"
           style="fill:#d1e5ec;fill-opacity:1;stroke:none;stroke-width:2.02912;stroke-linecap:round;stroke-linejoin:round;stroke-dasharray:none;stroke-opacity:1"
           d="M 1.3229167,5.7785929 V 12.166832 H 9.7895833 V 5.7785929 c 0,1.8489235 -0.9167093,3.3372638 -2.0551717,3.3372638 H 3.3780884 c -1.1384624,0 -2.0551717,-1.4883403 -2.0551717,-3.3372638 z"
           sodipodi:nodetypes="ccccssc" /><path
           id="path4164"
           style="fill:none;stroke:#000000;stroke-width:1.764;stroke-linecap:round;stroke-linejoin:round"
           d="m 3.527834,0.88200003 c -1.465789,0 -2.64583397,1.18004397 -2.64583397,2.64583397 v 1.668115 5.298901 c 0,0.732896 0.59002297,1.322917 1.32291697,1.322917 h 6.702432 c 0.732896,0 1.322917,-0.590021 1.322917,-1.322917 V 5.195949 3.527834 c 0,-1.46579 -1.180045,-2.64583397 -2.645833,-2.64583397 z" /></g><rect
         style="fill:#ffffff;fill-opacity:1;stroke:none;stroke-width:1.764;stroke-linecap:round;stroke-linejoin:round;stroke-dasharray:none;stroke-opacity:1"
         id="rect4170"
         width="8.4666662"
         height="10.672393"
         x="10.715625"
         y="12.449629"
         rx="1.3229166"
         ry="1.3229166" /><g
         id="g4176"
         transform="translate(9.3927083,10.95519)"><path
           id="path4172"
           style="fill:#d1e5ec;fill-opacity:1;stroke:none;stroke-width:2.02912;stroke-linecap:round;stroke-linejoin:round;stroke-dasharray:none;stroke-opacity:1"
           d="M 1.3229167,5.7785929 V 12.166832 H 9.7895833 V 5.7785929 c 0,1.8489235 -0.9167093,3.3372638 -2.0551717,3.3372638 H 3.3780884 c -1.1384624,0 -2.0551717,-1.4883403 -2.0551717,-3.3372638 z"
           sodipodi:nodetypes="ccccssc" /><path
           id="path4174"
           style="fill:none;stroke:#000000;stroke-width:1.764;stroke-linecap:round;stroke-linejoin:round"
           d="m 3.527834,0.88200003 c -1.465789,0 -2.64583397,1.18004397 -2.64583397,2.64583397 v 1.668115 5.298901 c 0,0.732896 0.59002297,1.322917 1.32291697,1.322917 h 6.702432 c 0.732896,0 1.322917,-0.590021 1.322917,-1.322917 V 5.195949 3.527834 c 0,-1.46579 -1.180045,-2.64583397 -2.645833,-2.64583397 z" /></g><rect
         style="fill:#ffffff;fill-opacity:1;stroke:none;stroke-width:1.764;stroke-linecap:round;stroke-linejoin:round;stroke-dasharray:none;stroke-opacity:1"
         id="rect4180"
         width="8.4666662"
         height="10.672393"
         x="20.108334"
         y="12.449629"
         rx="1.3229166"
         ry="1.3229166" /><g
         id="g4186"
         transform="translate(18.785417,10.95519)"><path
           id="path4182"
           style="fill:#d1e5ec;fill-opacity:1;stroke:none;stroke-width:2.02912;stroke-linecap:round;stroke-linejoin:round;stroke-dasharray:none;stroke-opacity:1"
           d="M 1.3229167,5.7785929 V 12.166832 H 9.7895833 V 5.7785929 c 0,1.8489235 -0.9167093,3.3372638 -2.0551717,3.3372638 H 3.3780884 c -1.1384624,0 -2.0551717,-1.4883403 -2.0551717,-3.3372638 z"
           sodipodi:nodetypes="ccccssc" /><path
           id="path4184"
           style="fill:none;stroke:#000000;stroke-width:1.764;stroke-linecap:round;stroke-linejoin:round"
           d="m 3.527834,0.88200003 c -1.465789,0 -2.64583397,1.18004397 -2.64583397,2.64583397 v 1.668115 5.298901 c 0,0.732896 0.59002297,1.322917 1.32291697,1.322917 h 6.702432 c 0.732896,0 1.322917,-0.590021 1.322917,-1.322917 V 5.195949 3.527834 c 0,-1.46579 -1.180045,-2.64583397 -2.645833,-2.64583397 z" /></g><rect
         style="fill:#ffffff;fill-opacity:1;stroke:none;stroke-width:1.764;stroke-linecap:round;stroke-linejoin:round;stroke-dasharray:none;stroke-opacity:1"
         id="rect4190"
         width="8.4666662"
         height="10.672393"
         x="29.501041"
         y="12.449629"
         rx="1.3229166"
         ry="1.3229166" /><g
         id="g4196"
         transform="translate(28.178125,10.95519)"><path
           id="path4192"
           style="fill:#d1e5ec;fill-opacity:1;stroke:none;stroke-width:2.02912;stroke-linecap:round;stroke-linejoin:round;stroke-dasharray:none;stroke-opacity:1"
           d="M 1.3229167,5.7785929 V 12.166832 H 9.7895833 V 5.7785929 c 0,1.8489235 -0.9167093,3.3372638 -2.0551717,3.3372638 H 3.3780884 c -1.1384624,0 -2.0551717,-1.4883403 -2.0551717,-3.3372638 z"
           sodipodi:nodetypes="ccccssc" /><path
           id="path4194"
           style="fill:none;stroke:#000000;stroke-width:1.764;stroke-linecap:round;stroke-linejoin:round"
           d="m 3.527834,0.88200003 c -1.465789,0 -2.64583397,1.18004397 -2.64583397,2.64583397 v 1.668115 5.298901 c 0,0.732896 0.59002297,1.322917 1.32291697,1.322917 h 6.702432 c 0.732896,0 1.322917,-0.590021 1.322917,-1.322917 V 5.195949 3.527834 c 0,-1.46579 -1.180045,-2.64583397 -2.645833,-2.64583397 z" /></g><rect
         style="fill:#ffffff;fill-opacity:1;stroke:none;stroke-width:1.764;stroke-linecap:round;stroke-linejoin:round;stroke-dasharray:none;stroke-opacity:1"
         id="rect4200"
         width="8.4666662"
         height="10.672393"
         x="1.3229166"
         y="23.426237"
         rx="1.3229166"
         ry="1.3229166" /><g
         id="g4206"
         transform="translate(0,21.931799)"><path
           id="path4202"
           style="fill:#d1e5ec;fill-opacity:1;stroke:none;stroke-width:2.02912;stroke-linecap:round;stroke-linejoin:round;stroke-dasharray:none;stroke-opacity:1"
           d="M 1.3229167,5.7785929 V 12.166832 H 9.7895833 V 5.7785929 c 0,1.8489235 -0.9167093,3.3372638 -2.0551717,3.3372638 H 3.3780884 c -1.1384624,0 -2.0551717,-1.4883403 -2.0551717,-3.3372638 z"
           sodipodi:nodetypes="ccccssc" /><path
           id="path4204"
           style="fill:none;stroke:#000000;stroke-width:1.764;stroke-linecap:round;stroke-linejoin:round"
           d="m 3.527834,0.88200003 c -1.465789,0 -2.64583397,1.18004397 -2.64583397,2.64583397 v 1.668115 5.298901 c 0,0.732896 0.59002297,1.322917 1.32291697,1.322917 h 6.702432 c 0.732896,0 1.322917,-0.590021 1.322917,-1.322917 V 5.195949 3.527834 c 0,-1.46579 -1.180045,-2.64583397 -2.645833,-2.64583397 z" /></g><rect
         style="fill:#ffffff;fill-opacity:1;stroke:none;stroke-width:1.764;stroke-linecap:round;stroke-linejoin:round;stroke-dasharray:none;stroke-opacity:1"
         id="rect4210"
         width="8.4666662"
         height="10.672393"
         x="10.715625"
         y="23.426237"
         rx="1.3229166"
         ry="1.3229166" /><g
         id="g4216"
         transform="translate(9.3927083,21.931799)"><path
           id="path4212"
           style="fill:#d1e5ec;fill-opacity:1;stroke:none;stroke-width:2.02912;stroke-linecap:round;stroke-linejoin:round;stroke-dasharray:none;stroke-opacity:1"
           d="M 1.3229167,5.7785929 V 12.166832 H 9.7895833 V 5.7785929 c 0,1.8489235 -0.9167093,3.3372638 -2.0551717,3.3372638 H 3.3780884 c -1.1384624,0 -2.0551717,-1.4883403 -2.0551717,-3.3372638 z"
           sodipodi:nodetypes="ccccssc" /><path
           id="path4214"
           style="fill:none;stroke:#000000;stroke-width:1.764;stroke-linecap:round;stroke-linejoin:round"
           d="m 3.527834,0.88200003 c -1.465789,0 -2.64583397,1.18004397 -2.64583397,2.64583397 v 1.668115 5.298901 c 0,0.732896 0.59002297,1.322917 1.32291697,1.322917 h 6.702432 c 0.732896,0 1.322917,-0.590021 1.322917,-1.322917 V 5.195949 3.527834 c 0,-1.46579 -1.180045,-2.64583397 -2.645833,-2.64583397 z" /></g><rect
         style="fill:#ffffff;fill-opacity:1;stroke:none;stroke-width:1.764;stroke-linecap:round;stroke-linejoin:round;stroke-dasharray:none;stroke-opacity:1"
         id="rect4220"
         width="8.4666662"
         height="10.672393"
         x="20.108334"
         y="23.426237"
         rx="1.3229166"
         ry="1.3229166" /><g
         id="g4226"
         transform="translate(18.785417,21.931799)"><path
           id="path4222"
           style="fill:#d1e5ec;fill-opacity:1;stroke:none;stroke-width:2.02912;stroke-linecap:round;stroke-linejoin:round;stroke-dasharray:none;stroke-opacity:1"
           d="M 1.3229167,5.7785929 V 12.166832 H 9.7895833 V 5.7785929 c 0,1.8489235 -0.9167093,3.3372638 -2.0551717,3.3372638 H 3.3780884 c -1.1384624,0 -2.0551717,-1.4883403 -2.0551717,-3.3372638 z"
           sodipodi:nodetypes="ccccssc" /><path
           id="path4224"
           style="fill:none;stroke:#000000;stroke-width:1.764;stroke-linecap:round;stroke-linejoin:round"
           d="m 3.527834,0.88200003 c -1.465789,0 -2.64583397,1.18004397 -2.64583397,2.64583397 v 1.668115 5.298901 c 0,0.732896 0.59002297,1.322917 1.32291697,1.322917 h 6.702432 c 0.732896,0 1.322917,-0.590021 1.322917,-1.322917 V 5.195949 3.527834 c 0,-1.46579 -1.180045,-2.64583397 -2.645833,-2.64583397 z" /></g><rect
         style="fill:#ffffff;fill-opacity:1;stroke:none;stroke-width:1.764;stroke-linecap:round;stroke-linejoin:round;stroke-dasharray:none;stroke-opacity:1"
         id="rect4230"
         width="8.4666662"
         height="10.672393"
         x="29.501041"
         y="23.426237"
         rx="1.3229166"
         ry="1.3229166" /><g
         id="g4236"
         transform="translate(28.178125,21.931799)"><path
           id="path4232"
           style="fill:#d1e5ec;fill-opacity:1;stroke:none;stroke-width:2.02912;stroke-linecap:round;stroke-linejoin:round;stroke-dasharray:none;stroke-opacity:1"
           d="M 1.3229167,5.7785929 V 12.166832 H 9.7895833 V 5.7785929 c 0,1.8489235 -0.9167093,3.3372638 -2.0551717,3.3372638 H 3.3780884 c -1.1384624,0 -2.0551717,-1.4883403 -2.0551717,-3.3372638 z"
           sodipodi:nodetypes="ccccssc" /><path
           id="path4234"
           style="fill:none;stroke:#000000;stroke-width:1.764;stroke-linecap:round;stroke-linejoin:round"
           d="m 3.527834,0.88200003 c -1.465789,0 -2.64583397,1.18004397 -2.64583397,2.64583397 v 1.668115 5.298901 c 0,0.732896 0.59002297,1.322917 1.32291697,1.322917 h 6.702432 c 0.732896,0 1.322917,-0.590021 1.322917,-1.322917 V 5.195949 3.527834 c 0,-1.46579 -1.180045,-2.64583397 -2.645833,-2.64583397 z" /></g><text
         xml:space="preserve"
         style="font-size:8.46667px;line-height:1.25;font-family:'JetBrains Mono';-inkscape-font-specification:'JetBrains Mono';stroke-width:0.264583"
         x="3.0161321"
         y="8.605958"
         id="text4486"><tspan
           sodipodi:role="line"
           id="tspan4484"
           style="font-style:normal;font-variant:normal;font-weight:bold;font-stretch:normal;font-size:8.46667px;font-family:'JetBrains Mono';-inkscape-font-specification:'JetBrains Mono Bold';stroke-width:0.264583"
           x="3.0161321"
           y="8.605958">O</tspan></text><text
         xml:space="preserve"
         style="font-size:8.46667px;line-height:1.25;font-family:'JetBrains Mono';-inkscape-font-specification:'JetBrains Mono';stroke-width:0.264583"
         x="12.24374"
         y="8.605958"
         id="text4540"><tspan
           sodipodi:role="line"
           id="tspan4538"
           style="font-style:normal;font-variant:normal;font-weight:bold;font-stretch:normal;font-size:8.46667px;font-family:'JetBrains Mono';-inkscape-font-specification:'JetBrains Mono Bold';stroke-width:0.264583"
           x="12.24374"
           y="8.605958">P</tspan></text><text
         xml:space="preserve"
         style="font-size:8.46667px;line-height:1.25;font-family:'JetBrains Mono';-inkscape-font-specification:'JetBrains Mono';stroke-width:0.264583"
         x="21.742283"
         y="8.605958"
         id="text4544"><tspan
           sodipodi:role="line"
           id="tspan4542"
           style="font-style:normal;font-variant:normal;font-weight:bold;font-stretch:normal;font-size:8.46667px;font-family:'JetBrains Mono';-inkscape-font-specification:'JetBrains Mono Bold';stroke-width:0.264583"
           x="21.742283"
           y="8.605958">E</tspan></text><text
         xml:space="preserve"
         style="font-size:8.46667px;line-height:1.25;font-family:'JetBrains Mono';-inkscape-font-specification:'JetBrains Mono';stroke-width:0.264583"
         x="31.194258"
         y="8.605958"
         id="text4548"><tspan
           sodipodi:role="line"
           id="tspan4546"
           style="font-style:normal;font-variant:normal;font-weight:bold;font-stretch:normal;font-size:8.46667px;font-family:'JetBrains Mono';-inkscape-font-specification:'JetBrains Mono Bold';stroke-width:0.264583"
           x="31.194258"
           y="8.605958">N</tspan></text><text
         xml:space="preserve"
         style="font-size:8.46667px;line-height:1.25;font-family:'JetBrains Mono';-inkscape-font-specification:'JetBrains Mono';stroke-width:0.264583"
         x="3.0161321"
         y="19.561163"
         id="text4552"><tspan
           sodipodi:role="line"
           id="tspan4550"
           style="font-style:normal;font-variant:normal;font-weight:bold;font-stretch:normal;font-size:8.46667px;font-family:'JetBrains Mono';-inkscape-font-specification:'JetBrains Mono Bold';stroke-width:0.264583"
           x="3.0161321"
           y="19.561163">A</tspan></text><text
         xml:space="preserve"
         style="font-size:8.46667px;line-height:1.25;font-family:'JetBrains Mono';-inkscape-font-specification:'JetBrains Mono';stroke-width:0.264583"
         x="12.24374"
         y="19.561163"
         id="text4556"><tspan
           sodipodi:role="line"
           id="tspan4554"
           style="font-style:normal;font-variant:normal;font-weight:bold;font-stretch:normal;font-size:8.46667px;font-family:'JetBrains Mono';-inkscape-font-specification:'JetBrains Mono Bold';stroke-width:0.264583"
           x="12.24374"
           y="19.561163">P</tspan></text><text
         xml:space="preserve"
         style="font-size:8.46667px;line-height:1.25;font-family:'JetBrains Mono';-inkscape-font-specification:'JetBrains Mono';stroke-width:0.264583"
         x="21.80155"
         y="19.561163"
         id="text4560"><tspan
           sodipodi:role="line"
           id="tspan4558"
           style="font-style:normal;font-variant:normal;font-weight:bold;font-stretch:normal;font-size:8.46667px;font-family:'JetBrains Mono';-inkscape-font-specification:'JetBrains Mono Bold';stroke-width:0.264583"
           x="21.80155"
           y="19.561163">I</tspan></text><text
         xml:space="preserve"
         style="font-size:8.46667px;line-height:1.25;font-family:'JetBrains Mono';-inkscape-font-specification:'JetBrains Mono';stroke-width:0.264583"
         x="31.194258"
         y="17.177795"
         id="text4564"><tspan
           sodipodi:role="line"
           id="tspan4562"
           style="font-style:normal;font-variant:normal;font-weight:bold;font-stretch:normal;font-size:8.46667px;font-family:'JetBrains Mono';-inkscape-font-specification:'JetBrains Mono Bold';stroke-width:0.264583"
           x="31.194258"
           y="17.177795">.</tspan></text><text
         xml:space="preserve"
         style="font-size:8.46667px;line-height:1.25;font-family:'JetBrains Mono';-inkscape-font-specification:'JetBrains Mono';stroke-width:0.264583"
         x="3.028832"
         y="30.537771"
         id="text4568"><tspan
           sodipodi:role="line"
           id="tspan4566"
           style="font-style:normal;font-variant:normal;font-weight:bold;font-stretch:normal;font-size:8.46667px;font-family:'JetBrains Mono';-inkscape-font-specification:'JetBrains Mono Bold';stroke-width:0.264583"
           x="3.028832"
           y="30.537771">❯</tspan></text><text
         xml:space="preserve"
         style="font-size:8.46667px;line-height:1.25;font-family:'JetBrains Mono';-inkscape-font-specification:'JetBrains Mono';stroke-width:0.264583"
         x="12.40884"
         y="30.537771"
         id="text4572"><tspan
           sodipodi:role="line"
           id="tspan4570"
           style="font-style:normal;font-variant:normal;font-weight:bold;font-stretch:normal;font-size:8.46667px;font-family:'JetBrains Mono';-inkscape-font-specification:'JetBrains Mono Bold';stroke-width:0.264583"
           x="12.40884"
           y="30.537771">T</tspan></text><text
         xml:space="preserve"
         style="font-size:8.46667px;line-height:1.25;font-family:'JetBrains Mono';-inkscape-font-specification:'JetBrains Mono';stroke-width:0.264583"
         x="21.80155"
         y="30.495438"
         id="text4576"><tspan
           sodipodi:role="line"
           id="tspan4574"
           style="font-style:normal;font-variant:normal;font-weight:bold;font-stretch:normal;font-size:8.46667px;font-family:'JetBrains Mono';-inkscape-font-specification:'JetBrains Mono Bold';stroke-width:0.264583"
           x="21.80155"
           y="30.495438">U</tspan></text><text
         xml:space="preserve"
         style="font-size:8.46667px;line-height:1.25;font-family:'JetBrains Mono';-inkscape-font-specification:'JetBrains Mono';stroke-width:0.264583"
         x="31.194258"
         y="30.537771"
         id="text4580"><tspan
           sodipodi:role="line"
           id="tspan4578"
           style="font-style:normal;font-variant:normal;font-weight:bold;font-stretch:normal;font-size:8.46667px;font-family:'JetBrains Mono';-inkscape-font-specification:'JetBrains Mono Bold';stroke-width:0.264583"
           x="31.194258"
           y="30.537771">I</tspan></text></g></g></svg>
